/* XPM */
static char * north_wall_xpm[] = {
"64 64 13 1",
" 	c #000000",
".	c #5B6567",
"+	c #495254",
"@	c #1A1A18",
"#	c #49383D",
"$	c #809EA5",
"%	c #342C28",
"&	c #3D241E",
"*	c #1D0A05",
"=	c #625249",
"-	c #6D8084",
";	c #353734",
">	c #242423",
"                                                                ",
".............+.+..........+.+++@ ..........................+.+..",
"+++++++++++++++++++++++++++++++@ .++++++++++++++++++++++++++++++",
"+++++++++++++++++++++++++++++++@ .++++++++++++++++++++++++++++++",
"+++++++++++++++++++++++++#$.+++@ .+#$.++++++++++++++++++++++++++",
"+++++++++++++++++++++++++#..+++@ .+#..++++++++++++++++++++++++++",
"+++++++++++++++++++++++++##++++@ .+##+++++++++++++++++++++++++++",
"+++++++++++++++++++++++++++++++@ .++++++++++++++++++++++++++++++",
"...............................%@$..............................",
"+++++++++++++++++++++++++++++++@ .++++++++++++++++++++++++++++++",
"...............................%@$..............................",
"...............................@ $..............................",
"...............................%@$..............................",
"...............................%@$..............................",
".........&.....................%@$....................+.........",
"........&@&....................%@$................+++.+.........",
"........&*&....................%@$..................+...........",
"........=&#....................@@-..................++..........",
"........=&#....................%@$..............+.++++..........",
"........=&=....................@@-.......+++...++.++++..........",
"........=.=....................%@$........++++++..+++...........",
"..........=....................@@-...........+++++..............",
"..........=....................%@-.............+++..............",
"...............................@@-..............+++.............",
"...............................@@-..............................",
"...............................@@-..............................",
"...............................@@...............................",
"...............................@@-..............................",
"...............................@@...............................",
"...............................@@-..............................",
"...............................@@...............................",
".........;.....................@%.....................;.........",
"....;;;;;;;;;;;................%@................;;;;;;;;;;;....",
"....>>>>>;>>>>>..........#$+...@%..#$+...........>>>>>;>>>>>....",
".....;;;;;;;;;...........#++...%@..#++............;;;;;;;;;.....",
"......>>>;>>>............##....@%..##..............>>>;>>>......",
"........;;;....................%%....................;;;........",
"$$$$$$$$$$$$$$$$$$$$$$$$$$$$.$.%%.$.$$$$$$$.$.$.$$$.$.$.$.$$$$$$",
"                                                                ",
"                                                                ",
">@ @>@@@>@ @>@@@>@ @>@@@>@ @>@@@>@ @>@@@>@ @>@@@>@ @>@@@>@ @>@@@",
";@ ;;>@;;@ ;;>@;;@ ;;>@;;@ ;;>@;;@ ;;>@;;@ ;;>@;;@ ;;>@;;@ ;;>@;",
";@ ;;>>;;@ ;;>>;;@ ;;>>;;@ ;;>>;;@ ;;>>;;@ ;;>>;;@ ;;>>;;@ ;;>>;",
";@ ;;>>;;@ ;;>>;;@ ;;>>;;@ ;;>>;;@ ;;>>;;@ ;;>>;;@ ;;>>;;@ ;;>>;",
";>@;;>>;;>@;;>>;;>@;;>>;;>@;;>>;;>@;;>>;;>@;;>>;;>@;;>>;;>@;;>>;",
";@ ;;>>;;@ ;;>>;;@ ;;>>;;@ ;;>>;;@ ;;>>;;@ ;;>>;;@ ;;>>;;@ ;;>>;",
";>@;;>>;;>@;;>>;;>@;;>>;;>@;;>>;;>@;;>>;;>@;;>>;;>@;;>>;;>@;;>>;",
";> ;;>>;;> ;;>>;;> ;;>>;;> ;;>>;;> ;;>>;;> ;;>>;;> ;;>>;;> ;;>>;",
";>@;;>>;;>@;;>>;;>@;;>>;;>@;;>>;;>@;;>>;;>@;;>>;;>@;;>>;;>@;;>>;",
";>@;;>>;;>@;;>>;;>@;;>>;;>@;;>>;;>@;;>>;;>@;;>>;;>@;;>>;;>@;;>>;",
";@@;;>>;;@@;>>>;;@@;;>>;;@@;>>>;;@@;;>>;;@@;>>>;;@@;;>>;;@@;>>>;",
";>@;;>>;;>@;;>>;;>@;;>>;;>@;;>>;;>@;;>>;;>@;;>>;;>@;;>>;;>@;;>>;",
">@ ;>>>;>@ ;>>>;>@ ;>>>;>@ ;>>>;>@ ;>>>;>@ ;>>>;>@ ;>>>;>@ ;>>>;",
";@@>;>>;;@@>;>>;;@@>;>>;;@@>;>>;;@@>;>>;;@@>;>>;;@@>;>>;;@@>;>>;",
">@ ;>>@;>@ ;>>@;>@ ;>>@;>@ ;>>@;>@ ;>>@;>@ ;>>@;>@ ;>>@;>@ ;>>@;",
">  >>@ >>  >>@ >>  >>@ >>  >>@ >>  >>@ >>  >>@ >>  >>@ >>  >>@ >",
"$$$$$$$$$-$$$$-$-$-$-$------$-$-$-$$$$$$$$$$$$$$$$$$$$$$$-$$$$-$",
"........+................+.............+.+......+.+.....+.......",
".+.....+...............++...............+........+.....+........",
"+..$+......$+......$+..+...$+......$+..+...$+...+..$+......$+...",
"..#++.....#++.....#++.+.+.#++.....#++.....#++..+..#++.....#++..+",
"+.##......##......##...+..##......##......##..++..##......##..+.",
"......................+.............+.........+..............+.+",
"#&&&&&&#&#&#######&#&#@#@#@@@@#@########&#&##&#&#&&&&&&#&#&#####"};
