/* XPM */
static char * door_midle_xpm[] = {
"64 64 70 1",
" 	c #5B6567",
".	c #495254",
"+	c #3D4143",
"@	c #1A1A18",
"#	c #000000",
"$	c #342C28",
"%	c #3D241E",
"&	c #49383D",
"*	c #6D8084",
"=	c #809EA5",
"-	c #525D5E",
";	c #EB2B2C",
">	c #FF0000",
",	c #C74647",
"'	c #D04142",
")	c #E23435",
"!	c #D42023",
"~	c #EA1517",
"{	c #FC0405",
"]	c #F71112",
"^	c #E92324",
"/	c #C3484A",
"(	c #6E6264",
"_	c #EA2122",
":	c #D32527",
"<	c #E72F30",
"[	c #F91516",
"}	c #6D6264",
"|	c #776162",
"1	c #FB0D0E",
"2	c #D63D3E",
"3	c #626466",
"4	c #8B5C5E",
"5	c #DC393A",
"6	c #F02425",
"7	c #7A6062",
"8	c #F41E1F",
"9	c #BF4A4C",
"0	c #C94647",
"a	c #616466",
"b	c #EF2526",
"c	c #DA3B3C",
"d	c #CA4546",
"e	c #F51C1D",
"f	c #F41D1E",
"g	c #766163",
"h	c #D04143",
"i	c #C94547",
"j	c #FB0C0C",
"k	c #C64748",
"l	c #C04A4B",
"m	c #EA2C2D",
"n	c #B64E50",
"o	c #CE4243",
"p	c #BB4C4E",
"q	c #706264",
"r	c #F91314",
"s	c #F51B1C",
"t	c #666365",
"u	c #C1494B",
"v	c #8A5C5E",
"w	c #F23C3F",
"x	c #7B6062",
"y	c #FD0304",
"z	c #F81617",
"A	c #EA2B2C",
"B	c #C85C5F",
"C	c #8C9AA1",
"D	c #F61313",
"E	c #F6191A",
"                 .    ..+++@#....                          . .  ",
".......................++++@#.+++...............................",
".......................+++$@#.+++...............................",
"....%%%%%%&%&&&&&&&....++++@#.+++...%%%%%%%%%%%%&%&&&&%%%&&.....",
"...%&..................+++$@#.+++..%&...........................",
"...%................ ..+++$@#.+++..%........................ ...",
"...%................ ..+++$@#.+++..%........................ ...",
"   &                *  ...+$@*...  &                        *   ",
"...%................ ..+++$@#.+++..%........................ ...",
"   &                *  ...+$@*...  .                        *   ",
"   &                =  ...+@#*...  .                        =   ",
"   &                *  ...+@#*...                           *   ",
"   &                =  ...+$@*...    ***=*====*             =   ",
"   &                =  ...+$@*...              *            =   ",
"   &                =  ...+$@*...               *           =   ",
"   .                =  ...+@@ ...............-   *          =   ",
"   .                =  ...+$@*.................   *         =   ",
"                   *=  ....@@ .................-   *       *=   ",
"     *****=*=*======   ...+$@        . . .......    *=======    ",
"                       ....$$$$$$$$$$@$@@@#+....                ",
"                       ....+$$$$$$$$@$@$@@@#....                ",
"    &&&&&&.&.......    ..................$@# ...   &&&&....     ",
"   &.                  -..................@#*...  &             ",
"   &                *   .................+@#*...  &         *   ",
"   &                 =   -................@#*...  &         *   ",
"   &                  *               ...+@#*...  &         *   ",
"   .                   *              ...+@#*...  &         =   ",
"   &      ;>>,   '>>)  ;>!&&~>>{]^/(  ._>:@#*.._>>>>><      *   ",
"   .      ;>>[} |1>>)  ;>2  ;>2345>67 ._>:@#*.._>2&         =   ",
"   &      ;>8>9 0>8>)  ;>2  ;>2  ab>c ._>:@# .._>2&         =   ",
"   .      ;>defg[6h>)  ;>2  ;>2   i>j3._>:@@*.._>2.         =   ",
"   &      ;>kl>m>no>)  ;>2  ;>2   p>>g._>:@$ .._>>>>>d      =   ",
"   &      ;>kqr>sto>)  ;>2  ;>2   i>j3._>:$@ .._>2.         *   ",
"   &      ;>k d>u o>)  ;>2  ;>2  ab>c ._>:@$ .._>2&         =   ",
"   &      ;>k     o>)  ;>2  ;>2av5>wx ._>:$@ .._>2.         =   ",
"   &      ;>k     o>)  ;>2  ;>>yzABC  ._>>>>>D._>>>>>E      =   ",
"   &             ==================   ....$$ ...  .         =   ",
"   .            =                     ...+@$ ...  .         =   ",
"   &           =                      ....$$ ...  .         =   ",
"   .          =   -......................+@$....  .         =   ",
"   .         =   .........................$$ ...  .         =   ",
"            =   -.........................@$....           *=   ",
"     **=====    .......            . . ..$$$ ...    ***=====    ",
"                ....+@@$$$$$$@$@$@$@$@$@$$$$....                ",
"                ....@#@$$$$$@$@$@$@$@$@$$$$+....                ",
"    &&&&....    ....@#..........................    &&&....     ",
"   &.           ...+@#.........................-   &            ",
"   &         *  ....@# ........................   &         *   ",
"   &         *  ...+@#.......................-   &          *   ",
"   &         *  ...+@# ...                      &           *   ",
"   .         =  ...+@#*...                     .            =   ",
"   &         =  ...+$@*...   &&&&&&&&&&.&......             *   ",
"   .         =  ...+@#*...  &.                              =   ",
"   .         =  ...+$@ ...  &                               =   ",
"   .         =  ...+@#*...  &                               =   ",
"   &         *  ...$$@....  &                               =   ",
"   .         =  ...+$@ ...  .                               =   ",
"   .         =  ...$$@....  .                               =   ",
"   .         =  ...$@@....  .                               =   ",
"            *=  ...$$@....                                 *=   ",
"     ****====   ...$@@....    ******=====*=*================    ",
"                ...$$@....                                      ",
"                ...$$$....                                      ",
"&%%%%%%&%&%&&&&&%%%@@@@%@@@@&@&&&&&&&&&&%&%&&%&%&%%%%%%&%&%&&&&&"};
