/* XPM */
static char * door_mid_xpm[] = {
"64 64 52 1",
" 	c #586264",
".	c #474F51",
"+	c #3B3F41",
"@	c #383C3E",
"#	c #000000",
"$	c #495254",
"%	c #5B6567",
"&	c #3D4143",
"*	c #3A3E40",
"=	c #312A26",
"-	c #3D241E",
";	c #49383D",
">	c #4B4B4B",
",	c #6D8084",
"'	c #809EA5",
")	c #777777",
"!	c #5F5F5F",
"~	c #2E2E2E",
"{	c #525D5E",
"]	c #464E50",
"^	c #322A26",
"/	c #3D3D3D",
"(	c #767676",
"_	c #485153",
":	c #161616",
"<	c #3C4042",
"[	c #454545",
"}	c #898989",
"|	c #3C3F41",
"1	c #424242",
"2	c #838383",
"3	c #464F51",
"4	c #3B3E40",
"5	c #424A4C",
"6	c #373B3C",
"7	c #4D4D4D",
"8	c #484B4D",
"9	c #A0A0A0",
"0	c #565656",
"a	c #2F2724",
"b	c #6C6C6C",
"c	c #AAAAAA",
"d	c #353535",
"e	c #5A5A5A",
"f	c #404040",
"g	c #787878",
"h	c #342D2A",
"i	c #636363",
"j	c #36201A",
"k	c #413236",
"l	c #141412",
"m	c #1A1A18",
"           .    ..++@##########$$$$%%%%%%%%%%%%%%%%%%%%%%%%%%$%$",
"$$$$$$$$$$$$$$$$$&&&*##########$&&&$$$$$$$$$$$$$$$$$$$$$$$$$$$$$",
"$$$$$$$$$$$$$$$$$&&&=##########$&&&$$$$$$$$$$$$$$$$$$$$$$$$$$$$$",
"----;-;;;;;;;$$$$&&&*##########$&&&$$$------------;-;;;;---;;$$$",
"$$$$$$$$$$$$$$$$$&&&=##>>######$&&&$$-;$$$$$$$$$$$$$$$$$$$$$$$$$",
"$$$$$$$$$$$$$$%$$&&&=##>>######$&&&$$-$$$$$$$$$$$$$$$$$$$$$$$$%$",
"$$$$$$$$$$$$$$%$$&&&=##########$&&&$$-$$$$$$$$$$$$$$$$$$$$$$$$%$",
"%%%%%%%%%%%%%%,%%$$$*##########,$$$%%;%%%%%%%%%%%%%%%%%%%%%%%%,%",
"$$$$$$$$$$$$$$%$$&&&=##########$&&&$$-$$$$$$$$$$$$$$$$$$$$$$$$%$",
"%%%%%%%%%%%%%%,%%$$$*##########,$$$%%$%%%%%%%%%%%%%%%%%%%%%%%%,%",
"%%%%%%%%%%%%%%'%%$$$*##########,$$$%%$%%%%%%%%%%%%%%%%%%%%%%%%'%",
"%%%%%%%%%%%%%%,%%$$$*##########,$$$%%%%%%%%%%%%%%%%%%%%%%%%%%%,%",
"%%%%%%%%%%%%%%'%%$$$*#))#######,$$$%%%%,,,','''',%%%%%%%%%%%%%'%",
"%%%%%%%%%%%%%%'%%$$$*##########,$$$%%%%%%%%%%%%%%,%%%%%%%%%%%%'%",
"%%%%%%%%%%%%%%'%%$$$*########!!,$$$%%%%%%%%%%%%%%%,%%%%%%%%%%%'%",
"%%%%%%%%%%%%%%'%%$$$*########~~%$$$$$$$$$$$$$$${%%%,%%%%%%%%%%'%",
"%%%%%%%%%%%%%%'%%$$$*##########,$$$$$$$$$$$$$$$$$%%%,%%%%%%%%%'%",
"%%%%%%%%%%%%%,'%%$$$]##########%$$$$$$$$$$$$$$$$${%%%,%%%%%%%,'%",
",,,,',',''''''%%%$$$*##########%%%%%%%%$%$%$$$$$$$%%%%,'''''''%%",
"%%%%%%%%%%%%%%%%%$$$]#########################$$$$%%%%%%%%%%%%%%",
"%%%%%%%%%%%%%%%%%$$$]#########################$$$$%%%%%%%%%%%%%%",
";;;;$;$$$$$$$%%%%$$$$..............^##########%$$$%%%;;;;$$$$%%%",
"%%%%%%%%%%%%%%%%%{$$$$$$$$$$$$$$$$$$##########,$$$%%;%%%%%%%%%%%",
"%%%%%%%%%%%%%%,%%%$$$$$$$$$$$$$$$$$&######/(##,$$$%%;%%%%%%%%%,%",
"%%%%%%%%%%%%%%%'%%%{$$$$$$$$$$$$$$$_######:/##,$$$%%;%%%%%%%%%,%",
"%%%%%%%%%%%%%%%%,%%%%%%%%%%%%%%%$$$<#[########,$$$%%;%%%%%%%%%,%",
"%%%%%%%%%%%%%%%%%,%%%%%%%%%%%%%%$$$<#}########,$$$%%;%%%%%%%%%'%",
"%%%%%%%%%%%%%%%%%%$;;;;;;$$$%%%%$$$<##########,$$$%%;%%%%%%%%%,%",
"%%%%%%%%%%%%%%%%%%%%%%%%%%%%%%%%$$$<##########,$$$%%;%%%%%%%%%'%",
"%%%%%%%%%%%%%%%%%%%%%%%%%%%%%,%%$$$<##########%$$$%%;%%%%%%%%%'%",
"%%%%%%%%%%%%%%%%%%%%%%%%%%%%%,%%$$$<##########,$$$%%$%%%%%%%%%'%",
"%%%%%%%%%%%%%%%%%%%%%%%%%%%%%,%%$$$<##########%$$$%%;%%%%%%%%%'%",
"%%%%%%%%%%%%%%%%%%%%%%%%%%%%%,%%$$$|####12####%$$$%%$%%%%%%%%%,%",
"%%%%%%%%%%%%%%%%%%%%%%%%%%%%%'%%$$$+##########%$$$%%;%%%%%%%%%'%",
"%%%%%%%%%%%%%%%%%%%%%%%%%%%%%'%%$$$+##########%$$$%%$%%%%%%%%%'%",
"%%%%%%%%%%%%%%%%%%%%%%%%%%%%,'%%$$$+##))######%$$$%%$%%%%%%%%%'%",
"%%%%%%%%%%%''''''''''''''''''%%%$$$.##########%$$$%%$%%%%%%%%%'%",
"%%%%%%%%%%'%%%%%%%%%%%%%%%%%%%%%$$$+##########%$$$%%$%%%%%%%%%'%",
"%%%%%%%%%'%%%%%%%%%%%%%%%%%%%%%%$$$3##########%$$$%%$%%%%%%%%%'%",
"%%%%%%%%'%%%{$$$$$$$$$$$$$$$$$$$$$$4##########$$$$%%$%%%%%%%%%'%",
"%%%%%%%'%%%$$$$$$$$$$$$$$$$$$$$$$$$3##########%$$$%%$%%%%%%%%%'%",
"%%%%%%'%%%{$$$$$$$$$$$$$$$$$$$$$$$$3##########$$$$%%%%%%%%%%%,'%",
",'''''%%%%$$$$$$$%%%%%%%%%%%%$%$%$$^#######)##%$$$%%%%,,,'''''%%",
"%%%%%%%%%%$$$5#############################)##$$$$%%%%%%%%%%%%%%",
"%%%%%%%%%%$$$5################################$$$$%%%%%%%%%%%%%%",
";;$$$$%%%%$$$5##########$$$$$$$$$$$$$$$$$$$$$$$$$$%%%%;;;$$$$%%%",
"%%%%%%%%%%$$$6####77####$$$$$$$$$$$$$$$$$$$$$$$$${%%%;%%%%%%%%%%",
"%%%%%%%,%%$$$5####77####%$$$$$$$$$$$$$$$$$$$$$$$$%%%;%%%%%%%%%,%",
"%%%%%%%,%%$$$6##########$$$$$$$$$$$$$$$$$$$$$$${%%%;%%%%%%%%%%,%",
"%%%%%%%,%%$$$6##########%$$$%%%%%%%%%%%%%%%%%%%%%%;%%%%%%%%%%%,%",
"%%%%%%%'%%$$$89#########,$$$%%%%%%%%%%%%%%%%%%%%%$%%%%%%%%%%%%'%",
"%%%%%%%'%%$$$|0#########,$$$%%%;;;;;;;;;;$;$$$$$$%%%%%%%%%%%%%,%",
"%%%%%%%'%%$$$6##########,$$$%%;$%%%%%%%%%%%%%%%%%%%%%%%%%%%%%%'%",
"%%%%%%%'%%$$$6##########%$$$%%;%%%%%%%%%%%%%%%%%%%%%%%%%%%%%%%'%",
"%%%%%%%'%%$$$6##########,$$$%%;%%%%%%%%%%%%%%%%%%%%%%%%%%%%%%%'%",
"%%%%%%%,%%$$$a##########$$$$%%;%%%%%%%%%%%%%%%%%%%%%%%%%%%%%%%'%",
"%%%%%%%'%%$$$6####bc####%$$$%%$%%%%%%%%%%%%%%%%%%%%%%%%%%%%%%%'%",
"%%%%%%%'%%$$$a####de####$$$$%%$%%%%%%%%%%%%%%%%%%%%%%%%%%%%%%%'%",
"%%%%%%%'%%$$$a######:f##$$$$%%$%%%%%%%%%%%%%%%%%%%%%%%%%%%%%%%'%",
"%%%%%%,'%%$$$a######fg##$$$$%%%%%%%%%%%%%%%%%%%%%%%%%%%%%%%%%,'%",
",,,''''%%%$$$a##########$$$$%%%%,,,,,,''''',',''''''''''''''''%%",
"%%%%%%%%%%$$$hi#########$$$$%%%%%%%%%%%%%%%%%%%%%%%%%%%%%%%%%%%%",
"%%%%%%%%%%$$$hi#########$$$$%%%%%%%%%%%%%%%%%%%%%%%%%%%%%%%%%%%%",
"jkjkjkkkkkjjjl##########m-mmmm;m;;;;;;;;;;-;-;;-;-;------;-;-;;;"};
